<mxfile host="Electron" agent="Mozilla/5.0 (Windows NT 10.0; Win64; x64) AppleWebKit/537.36 (KHTML, like Gecko) draw.io/28.0.6 Chrome/138.0.7204.100 Electron/37.2.3 Safari/537.36" version="28.0.6" pages="2">
  <diagram name="Project Scope" id="McsNOYd1awC_-GSTT8ix">
    <mxGraphModel dx="2058" dy="1228" grid="1" gridSize="10" guides="1" tooltips="1" connect="1" arrows="1" fold="0" page="1" pageScale="1" pageWidth="280" pageHeight="140" math="0" shadow="0">
      <root>
        <mxCell id="0" />
        <mxCell id="1" parent="0" />
        <mxCell id="0ag0ew79iEDbAjZ4XW5W-1" value="&lt;h1 style=&quot;margin-top: 0px;&quot;&gt;Scope&lt;/h1&gt;&lt;p&gt;Lorem ipsum dolor sit amet, consectetur adipisicing elit, sed do eiusmod tempor incididunt ut labore et dolore magna aliqua.&lt;/p&gt;" style="text;html=1;whiteSpace=wrap;overflow=hidden;rounded=0;" parent="1" vertex="1">
          <mxGeometry x="20" y="20" width="240" height="100" as="geometry" />
        </mxCell>
      </root>
    </mxGraphModel>
  </diagram>
  <diagram id="FQ1nKd3-7XS8y8ytSOO6" name="Brainstorm">
    <mxGraphModel dx="820" dy="493" grid="1" gridSize="10" guides="1" tooltips="1" connect="1" arrows="1" fold="1" page="1" pageScale="1" pageWidth="1200" pageHeight="1000" math="0" shadow="0">
      <root>
        <mxCell id="0" />
        <mxCell id="1" parent="0" />
        <mxCell id="X5wJtgzugMUxQY_5YuQc-3" style="edgeStyle=none;shape=connector;rounded=0;orthogonalLoop=1;jettySize=auto;html=1;exitX=1;exitY=0.5;exitDx=0;exitDy=0;strokeColor=default;align=center;verticalAlign=middle;fontFamily=Helvetica;fontSize=11;fontColor=default;labelBackgroundColor=default;endArrow=classic;entryX=0;entryY=0.5;entryDx=0;entryDy=0;" edge="1" parent="1" source="X5wJtgzugMUxQY_5YuQc-1" target="X5wJtgzugMUxQY_5YuQc-4">
          <mxGeometry relative="1" as="geometry">
            <mxPoint x="200" y="220" as="targetPoint" />
          </mxGeometry>
        </mxCell>
        <mxCell id="X5wJtgzugMUxQY_5YuQc-1" value="Controller" style="rounded=1;whiteSpace=wrap;html=1;absoluteArcSize=1;fontFamily=Helvetica;fontSize=11;fontColor=default;labelBackgroundColor=default;" vertex="1" parent="1">
          <mxGeometry x="120" y="200" width="80" height="40" as="geometry" />
        </mxCell>
        <mxCell id="X5wJtgzugMUxQY_5YuQc-7" style="edgeStyle=none;shape=connector;rounded=0;orthogonalLoop=1;jettySize=auto;html=1;exitX=1;exitY=0.5;exitDx=0;exitDy=0;entryX=0;entryY=0.5;entryDx=0;entryDy=0;strokeColor=default;align=center;verticalAlign=middle;fontFamily=Helvetica;fontSize=11;fontColor=default;labelBackgroundColor=default;endArrow=classic;" edge="1" parent="1" source="X5wJtgzugMUxQY_5YuQc-4" target="X5wJtgzugMUxQY_5YuQc-6">
          <mxGeometry relative="1" as="geometry" />
        </mxCell>
        <mxCell id="X5wJtgzugMUxQY_5YuQc-8" style="edgeStyle=none;shape=connector;rounded=0;orthogonalLoop=1;jettySize=auto;html=1;exitX=0.5;exitY=0;exitDx=0;exitDy=0;entryX=0.5;entryY=1;entryDx=0;entryDy=0;strokeColor=default;align=center;verticalAlign=middle;fontFamily=Helvetica;fontSize=11;fontColor=default;labelBackgroundColor=default;endArrow=classic;" edge="1" parent="1" source="X5wJtgzugMUxQY_5YuQc-4" target="X5wJtgzugMUxQY_5YuQc-5">
          <mxGeometry relative="1" as="geometry" />
        </mxCell>
        <mxCell id="X5wJtgzugMUxQY_5YuQc-4" value="Processor" style="rounded=1;whiteSpace=wrap;html=1;absoluteArcSize=1;fontFamily=Helvetica;fontSize=11;fontColor=default;labelBackgroundColor=default;" vertex="1" parent="1">
          <mxGeometry x="240" y="200" width="80" height="40" as="geometry" />
        </mxCell>
        <mxCell id="X5wJtgzugMUxQY_5YuQc-5" value="Display" style="rounded=1;whiteSpace=wrap;html=1;absoluteArcSize=1;fontFamily=Helvetica;fontSize=11;fontColor=default;labelBackgroundColor=default;" vertex="1" parent="1">
          <mxGeometry x="240" y="120" width="80" height="40" as="geometry" />
        </mxCell>
        <mxCell id="X5wJtgzugMUxQY_5YuQc-12" style="shape=connector;rounded=0;orthogonalLoop=1;jettySize=auto;html=1;exitX=1;exitY=0.5;exitDx=0;exitDy=0;entryX=0;entryY=0.5;entryDx=0;entryDy=0;strokeColor=default;align=center;verticalAlign=middle;fontFamily=Helvetica;fontSize=11;fontColor=default;labelBackgroundColor=default;endArrow=classic;convertToSvg=0;edgeStyle=orthogonalEdgeStyle;curved=1;" edge="1" parent="1" source="X5wJtgzugMUxQY_5YuQc-6" target="X5wJtgzugMUxQY_5YuQc-11">
          <mxGeometry relative="1" as="geometry" />
        </mxCell>
        <mxCell id="X5wJtgzugMUxQY_5YuQc-15" style="edgeStyle=orthogonalEdgeStyle;shape=connector;curved=1;rounded=0;orthogonalLoop=1;jettySize=auto;html=1;exitX=1;exitY=0.5;exitDx=0;exitDy=0;entryX=0;entryY=0.5;entryDx=0;entryDy=0;strokeColor=default;align=center;verticalAlign=middle;fontFamily=Helvetica;fontSize=11;fontColor=default;labelBackgroundColor=default;endArrow=classic;" edge="1" parent="1" source="X5wJtgzugMUxQY_5YuQc-6" target="X5wJtgzugMUxQY_5YuQc-13">
          <mxGeometry relative="1" as="geometry" />
        </mxCell>
        <mxCell id="X5wJtgzugMUxQY_5YuQc-6" value="Network Driver" style="rounded=1;whiteSpace=wrap;html=1;absoluteArcSize=1;fontFamily=Helvetica;fontSize=11;fontColor=default;labelBackgroundColor=default;" vertex="1" parent="1">
          <mxGeometry x="360" y="200" width="80" height="40" as="geometry" />
        </mxCell>
        <mxCell id="X5wJtgzugMUxQY_5YuQc-10" style="edgeStyle=none;shape=connector;rounded=0;orthogonalLoop=1;jettySize=auto;html=1;exitX=0.5;exitY=0;exitDx=0;exitDy=0;entryX=0.5;entryY=1;entryDx=0;entryDy=0;strokeColor=default;align=center;verticalAlign=middle;fontFamily=Helvetica;fontSize=11;fontColor=default;labelBackgroundColor=default;endArrow=classic;" edge="1" parent="1" source="X5wJtgzugMUxQY_5YuQc-9" target="X5wJtgzugMUxQY_5YuQc-4">
          <mxGeometry relative="1" as="geometry" />
        </mxCell>
        <mxCell id="X5wJtgzugMUxQY_5YuQc-9" value="HID Interface" style="rounded=1;whiteSpace=wrap;html=1;absoluteArcSize=1;fontFamily=Helvetica;fontSize=11;fontColor=default;labelBackgroundColor=default;" vertex="1" parent="1">
          <mxGeometry x="240" y="280" width="80" height="40" as="geometry" />
        </mxCell>
        <mxCell id="X5wJtgzugMUxQY_5YuQc-11" value="Short Range Internal Antenna" style="rounded=1;whiteSpace=wrap;html=1;absoluteArcSize=1;fontFamily=Helvetica;fontSize=11;fontColor=default;labelBackgroundColor=none;" vertex="1" parent="1">
          <mxGeometry x="480" y="170" width="100" height="40" as="geometry" />
        </mxCell>
        <mxCell id="X5wJtgzugMUxQY_5YuQc-13" value="Long Range External Antenna Port" style="rounded=1;whiteSpace=wrap;html=1;absoluteArcSize=1;fontFamily=Helvetica;fontSize=11;fontColor=default;labelBackgroundColor=none;" vertex="1" parent="1">
          <mxGeometry x="480" y="230" width="100" height="40" as="geometry" />
        </mxCell>
        <mxCell id="X5wJtgzugMUxQY_5YuQc-16" value="" style="endArrow=none;dashed=1;html=1;dashPattern=1 3;strokeWidth=2;rounded=0;strokeColor=default;align=center;verticalAlign=middle;fontFamily=Helvetica;fontSize=11;fontColor=default;labelBackgroundColor=default;edgeStyle=orthogonalEdgeStyle;" edge="1" parent="1">
          <mxGeometry width="50" height="50" relative="1" as="geometry">
            <mxPoint x="220" y="100" as="sourcePoint" />
            <mxPoint x="220" y="100" as="targetPoint" />
            <Array as="points">
              <mxPoint x="220" y="340" />
              <mxPoint x="460" y="340" />
              <mxPoint x="460" y="100" />
              <mxPoint x="220" y="100" />
            </Array>
          </mxGeometry>
        </mxCell>
      </root>
    </mxGraphModel>
  </diagram>
</mxfile>
